<?xml version="1.0" standalone="no"?>
<!DOCTYPE svg PUBLIC "-//W3C//DTD SVG 20010904//EN"
 "http://www.w3.org/TR/2001/REC-SVG-20010904/DTD/svg10.dtd">
<svg version="1.0" xmlns="http://www.w3.org/2000/svg"
 width="512.000000pt" height="512.000000pt" viewBox="0 0 512.000000 512.000000"
 preserveAspectRatio="xMidYMid meet">

<g transform="translate(0.000000,512.000000) scale(0.100000,-0.100000)"
fill="#000000" stroke="none">
<path d="M2440 5105 c-36 -8 -103 -34 -148 -57 -75 -38 -203 -147 -1187 -1008
l-1104 -965 0 -262 -1 -263 200 0 200 0 0 -1008 c0 -972 1 -1012 20 -1086 28
-112 73 -189 160 -277 55 -55 96 -86 150 -112 133 -66 142 -67 853 -67 l637 0
0 740 0 740 350 0 350 0 0 -740 0 -740 628 0 c699 0 708 1 842 66 56 27 94 57
150 113 86 88 132 166 160 277 19 74 20 114 20 1086 l0 1008 200 0 200 0 -1
263 0 262 -269 235 -269 235 -1 523 0 522 -592 0 -593 1 -210 185 c-115 103
-233 204 -260 225 -134 102 -314 140 -485 104z m200 -401 c26 -11 231 -184
588 -499 l547 -483 3 234 2 234 200 0 200 0 0 -413 0 -412 233 -205 233 -205
-1037 -3 c-571 -1 -1509 -1 -2085 0 l-1048 3 992 868 c545 477 1006 874 1024
882 44 19 99 19 148 -1z m1678 -3163 l-3 -1009 -30 -43 c-16 -23 -48 -52 -70
-63 -38 -20 -56 -21 -467 -24 l-428 -3 0 741 0 740 -750 0 -750 0 0 -740 0
-741 -437 3 c-422 3 -439 4 -478 24 -22 11 -53 40 -70 63 l-30 43 -3 1009 -2
1009 1760 0 1760 0 -2 -1009z"/>
</g>
</svg>
